<svg width="139" height="24" viewBox="0 0 139 24" fill="none" xmlns="http://www.w3.org/2000/svg">
<g clip-path="url(#clip0_31_1102)">
<path d="M-0.000104904 11.9286C6.58788 11.9286 11.9285 6.58796 11.9285 -2.86102e-05C11.9285 -6.58802 6.58788 -11.9286 -0.000104904 -11.9286C-6.58809 -11.9286 -11.9287 -6.58802 -11.9287 -2.86102e-05C-11.9287 6.58796 -6.58809 11.9286 -0.000104904 11.9286Z" fill="url(#paint0_linear_31_1102)"/>
</g>
<g clip-path="url(#clip1_31_1102)">
<g clip-path="url(#clip2_31_1102)">
<path d="M0.00878143 15.4339C12.1191 15.4339 21.9365 19.2907 21.9365 24.0484C21.9365 28.806 12.1191 32.6628 0.00878143 32.6628C-12.1016 32.6628 -21.9189 28.806 -21.9189 24.0484C-21.9189 19.2907 -12.1016 15.4339 0.00878143 15.4339Z" fill="url(#paint1_linear_31_1102)"/>
</g>
</g>
<path d="M27.1375 1.63757H36.675V4.91257H30.875V8.23757H36.2375V11.5001H30.875V18.1376H27.1375V1.63757ZM39.1867 18.1376V7.87507H42.9867V18.1376H39.1867ZM41.1367 5.76257C40.5367 5.76257 40.0284 5.55424 39.6117 5.13757C39.1951 4.71257 38.9867 4.20841 38.9867 3.62507C38.9867 3.04174 39.1951 2.53757 39.6117 2.11257C40.0367 1.67924 40.5451 1.46257 41.1367 1.46257C41.5284 1.46257 41.8867 1.56257 42.2117 1.76257C42.5367 1.95424 42.7992 2.21257 42.9992 2.53757C43.1992 2.86257 43.2992 3.22507 43.2992 3.62507C43.2992 4.20841 43.0867 4.71257 42.6617 5.13757C42.2367 5.55424 41.7284 5.76257 41.1367 5.76257ZM52.6672 7.57507C53.3839 7.57507 54.0839 7.72091 54.7672 8.01257C55.4505 8.30424 56.013 8.76674 56.4547 9.40007C56.8964 10.0251 57.1172 10.8501 57.1172 11.8751V18.1376H53.3047V12.5001C53.3047 11.7667 53.1297 11.2167 52.7797 10.8501C52.4297 10.4751 51.9714 10.2876 51.4047 10.2876C51.0297 10.2876 50.6755 10.3876 50.3422 10.5876C50.0172 10.7792 49.7505 11.0542 49.5422 11.4126C49.3422 11.7626 49.2422 12.1667 49.2422 12.6251V18.1376H45.4422V7.87507H49.2422V9.38757C49.3422 9.11257 49.5505 8.83757 49.8672 8.56257C50.1922 8.27924 50.5964 8.04591 51.0797 7.86257C51.5714 7.67091 52.1005 7.57507 52.6672 7.57507ZM63.7254 18.4376C62.7337 18.4376 61.8712 18.1959 61.1379 17.7126C60.4046 17.2209 59.8337 16.5667 59.4254 15.7501C59.0254 14.9251 58.8254 14.0126 58.8254 13.0126C58.8254 12.0126 59.0254 11.1042 59.4254 10.2876C59.8337 9.46257 60.4046 8.80424 61.1379 8.31257C61.8712 7.82091 62.7337 7.57507 63.7254 7.57507C64.3837 7.57507 64.9671 7.67924 65.4754 7.88757C65.9837 8.08757 66.3962 8.32924 66.7129 8.61257C67.0296 8.88757 67.2212 9.14174 67.2879 9.37507V0.937573H71.0879V18.1376H67.3254V16.4751C67.1671 16.7834 66.9087 17.0917 66.5504 17.4001C66.1921 17.7001 65.7712 17.9459 65.2879 18.1376C64.8046 18.3376 64.2837 18.4376 63.7254 18.4376ZM64.8879 15.4501C65.3462 15.4501 65.7546 15.3459 66.1129 15.1376C66.4796 14.9292 66.7671 14.6417 66.9754 14.2751C67.1837 13.9001 67.2879 13.4792 67.2879 13.0126C67.2879 12.5459 67.1837 12.1292 66.9754 11.7626C66.7671 11.3876 66.4796 11.0959 66.1129 10.8876C65.7546 10.6709 65.3462 10.5626 64.8879 10.5626C64.4462 10.5626 64.0462 10.6709 63.6879 10.8876C63.3379 11.0959 63.0587 11.3876 62.8504 11.7626C62.6504 12.1292 62.5504 12.5459 62.5504 13.0126C62.5504 13.4792 62.6504 13.9001 62.8504 14.2751C63.0587 14.6417 63.3379 14.9292 63.6879 15.1376C64.0462 15.3459 64.4462 15.4501 64.8879 15.4501ZM90.8527 1.63757V18.1376H87.1277V8.42507L87.2902 5.66257L86.6527 8.82507L83.8777 16.8126H80.2152L77.4527 8.82507L76.8277 5.66257L76.9902 8.42507V18.1376H73.2527V1.63757H78.5027L81.8277 12.6501L82.0527 13.9626L82.2777 12.6501L85.6027 1.63757H90.8527ZM99.0219 14.8501L101.797 7.87507H105.522L98.4719 23.3376H94.6719L97.0469 18.1376L92.7594 7.87507H96.5469L99.0219 14.8501Z" fill="#7976FF"/>
<path d="M106.726 1.63757H112.726C113.784 1.63757 114.738 1.82507 115.588 2.20007C116.438 2.56674 117.113 3.12924 117.613 3.88757C118.121 4.63757 118.376 5.57924 118.376 6.71257C118.376 7.83757 118.121 8.79591 117.613 9.58757C117.113 10.3709 116.438 10.9709 115.588 11.3876C114.738 11.7959 113.784 12.0001 112.726 12.0001H110.463V18.1376H106.726V1.63757ZM110.463 9.05007H111.688C112.196 9.05007 112.651 8.97507 113.051 8.82507C113.459 8.67507 113.784 8.43757 114.026 8.11257C114.267 7.77924 114.388 7.34174 114.388 6.80007C114.388 6.25007 114.267 5.81674 114.026 5.50007C113.784 5.17507 113.459 4.94174 113.051 4.80007C112.651 4.65841 112.196 4.58757 111.688 4.58757H110.463V9.05007ZM120.656 18.1376V7.87507H124.456V18.1376H120.656ZM122.606 5.76257C122.006 5.76257 121.498 5.55424 121.081 5.13757C120.665 4.71257 120.456 4.20841 120.456 3.62507C120.456 3.04174 120.665 2.53757 121.081 2.11257C121.506 1.67924 122.015 1.46257 122.606 1.46257C122.998 1.46257 123.356 1.56257 123.681 1.76257C124.006 1.95424 124.269 2.21257 124.469 2.53757C124.669 2.86257 124.769 3.22507 124.769 3.62507C124.769 4.20841 124.556 4.71257 124.131 5.13757C123.706 5.55424 123.198 5.76257 122.606 5.76257ZM134.074 7.87507H138.374L133.537 12.7751L138.874 18.1376H134.474L130.512 14.0126V18.1376H126.712V0.937573H130.512V11.4501L134.074 7.87507Z" fill="#44B0FF"/>
<defs>
<linearGradient id="paint0_linear_31_1102" x1="-0.000104904" y1="-11.9286" x2="-0.000104904" y2="11.9286" gradientUnits="userSpaceOnUse">
<stop stop-color="#CEF9FF"/>
<stop offset="1" stop-color="#6F6CFF"/>
</linearGradient>
<linearGradient id="paint1_linear_31_1102" x1="0.00878143" y1="32.6628" x2="0.00878143" y2="15.4339" gradientUnits="userSpaceOnUse">
<stop stop-color="#CEF9FF"/>
<stop offset="1" stop-color="#6F6CFF"/>
</linearGradient>
<clipPath id="clip0_31_1102">
<rect width="11.9286" height="11.9286" rx="1" fill="white"/>
</clipPath>
<clipPath id="clip1_31_1102">
<rect y="15.2751" width="22" height="8" rx="1" fill="white"/>
</clipPath>
<clipPath id="clip2_31_1102">
<rect width="21.9277" height="8.61446" fill="white" transform="matrix(1 0 0 -1 0.00878906 24.0483)"/>
</clipPath>
</defs>
</svg>
