<svg width="139" height="23" viewBox="0 0 139 23" fill="none" xmlns="http://www.w3.org/2000/svg">
<g clip-path="url(#clip0_19_93)">
<g clip-path="url(#clip1_19_93)">
<path d="M-0.000104904 11.791C6.58788 11.791 11.9285 6.45039 11.9285 -0.137602C11.9285 -6.72559 6.58788 -12.0662 -0.000104904 -12.0662C-6.58809 -12.0662 -11.9287 -6.72559 -11.9287 -0.137602C-11.9287 6.45039 -6.58809 11.791 -0.000104904 11.791Z" fill="url(#paint0_linear_19_93)"/>
</g>
<g clip-path="url(#clip2_19_93)">
<g clip-path="url(#clip3_19_93)">
<path d="M0.00878143 15.2963C12.1191 15.2963 21.9365 19.1532 21.9365 23.9108C21.9365 28.6684 12.1191 32.5253 0.00878143 32.5253C-12.1016 32.5253 -21.9189 28.6684 -21.9189 23.9108C-21.9189 19.1532 -12.1016 15.2963 0.00878143 15.2963Z" fill="url(#paint1_linear_19_93)"/>
</g>
</g>
<path d="M27.1375 1.5H36.675V4.775H30.875V8.1H36.2375V11.3625H30.875V18H27.1375V1.5ZM39.1867 18V7.7375H42.9867V18H39.1867ZM41.1367 5.625C40.5367 5.625 40.0284 5.41667 39.6117 5C39.1951 4.575 38.9867 4.07083 38.9867 3.4875C38.9867 2.90417 39.1951 2.4 39.6117 1.975C40.0367 1.54167 40.5451 1.325 41.1367 1.325C41.5284 1.325 41.8867 1.425 42.2117 1.625C42.5367 1.81667 42.7992 2.075 42.9992 2.4C43.1992 2.725 43.2992 3.0875 43.2992 3.4875C43.2992 4.07083 43.0867 4.575 42.6617 5C42.2367 5.41667 41.7284 5.625 41.1367 5.625ZM52.6672 7.4375C53.3839 7.4375 54.0839 7.58333 54.7672 7.875C55.4505 8.16667 56.013 8.62917 56.4547 9.2625C56.8964 9.8875 57.1172 10.7125 57.1172 11.7375V18H53.3047V12.3625C53.3047 11.6292 53.1297 11.0792 52.7797 10.7125C52.4297 10.3375 51.9714 10.15 51.4047 10.15C51.0297 10.15 50.6755 10.25 50.3422 10.45C50.0172 10.6417 49.7505 10.9167 49.5422 11.275C49.3422 11.625 49.2422 12.0292 49.2422 12.4875V18H45.4422V7.7375H49.2422V9.25C49.3422 8.975 49.5505 8.7 49.8672 8.425C50.1922 8.14167 50.5964 7.90833 51.0797 7.725C51.5714 7.53333 52.1005 7.4375 52.6672 7.4375ZM63.7254 18.3C62.7337 18.3 61.8712 18.0583 61.1379 17.575C60.4046 17.0833 59.8337 16.4292 59.4254 15.6125C59.0254 14.7875 58.8254 13.875 58.8254 12.875C58.8254 11.875 59.0254 10.9667 59.4254 10.15C59.8337 9.325 60.4046 8.66667 61.1379 8.175C61.8712 7.68333 62.7337 7.4375 63.7254 7.4375C64.3837 7.4375 64.9671 7.54167 65.4754 7.75C65.9837 7.95 66.3962 8.19167 66.7129 8.475C67.0296 8.75 67.2212 9.00417 67.2879 9.2375V0.799999H71.0879V18H67.3254V16.3375C67.1671 16.6458 66.9087 16.9542 66.5504 17.2625C66.1921 17.5625 65.7712 17.8083 65.2879 18C64.8046 18.2 64.2837 18.3 63.7254 18.3ZM64.8879 15.3125C65.3462 15.3125 65.7546 15.2083 66.1129 15C66.4796 14.7917 66.7671 14.5042 66.9754 14.1375C67.1837 13.7625 67.2879 13.3417 67.2879 12.875C67.2879 12.4083 67.1837 11.9917 66.9754 11.625C66.7671 11.25 66.4796 10.9583 66.1129 10.75C65.7546 10.5333 65.3462 10.425 64.8879 10.425C64.4462 10.425 64.0462 10.5333 63.6879 10.75C63.3379 10.9583 63.0587 11.25 62.8504 11.625C62.6504 11.9917 62.5504 12.4083 62.5504 12.875C62.5504 13.3417 62.6504 13.7625 62.8504 14.1375C63.0587 14.5042 63.3379 14.7917 63.6879 15C64.0462 15.2083 64.4462 15.3125 64.8879 15.3125ZM90.8527 1.5V18H87.1277V8.2875L87.2902 5.525L86.6527 8.6875L83.8777 16.675H80.2152L77.4527 8.6875L76.8277 5.525L76.9902 8.2875V18H73.2527V1.5H78.5027L81.8277 12.5125L82.0527 13.825L82.2777 12.5125L85.6027 1.5H90.8527ZM99.0219 14.7125L101.797 7.7375H105.522L98.4719 23.2H94.6719L97.0469 18L92.7594 7.7375H96.5469L99.0219 14.7125Z" fill="#7976FF"/>
<path d="M106.726 1.5H112.726C113.784 1.5 114.738 1.6875 115.588 2.0625C116.438 2.42917 117.113 2.99167 117.613 3.75C118.121 4.5 118.376 5.44167 118.376 6.575C118.376 7.7 118.121 8.65833 117.613 9.45C117.113 10.2333 116.438 10.8333 115.588 11.25C114.738 11.6583 113.784 11.8625 112.726 11.8625H110.463V18H106.726V1.5ZM110.463 8.9125H111.688C112.196 8.9125 112.651 8.8375 113.051 8.6875C113.459 8.5375 113.784 8.3 114.026 7.975C114.267 7.64167 114.388 7.20417 114.388 6.6625C114.388 6.1125 114.267 5.67917 114.026 5.3625C113.784 5.0375 113.459 4.80417 113.051 4.6625C112.651 4.52083 112.196 4.45 111.688 4.45H110.463V8.9125ZM120.656 18V7.7375H124.456V18H120.656ZM122.606 5.625C122.006 5.625 121.498 5.41667 121.081 5C120.665 4.575 120.456 4.07083 120.456 3.4875C120.456 2.90417 120.665 2.4 121.081 1.975C121.506 1.54167 122.015 1.325 122.606 1.325C122.998 1.325 123.356 1.425 123.681 1.625C124.006 1.81667 124.269 2.075 124.469 2.4C124.669 2.725 124.769 3.0875 124.769 3.4875C124.769 4.07083 124.556 4.575 124.131 5C123.706 5.41667 123.198 5.625 122.606 5.625ZM134.074 7.7375H138.374L133.537 12.6375L138.874 18H134.474L130.512 13.875V18H126.712V0.799999H130.512V11.3125L134.074 7.7375Z" fill="#44B0FF"/>
</g>
<defs>
<linearGradient id="paint0_linear_19_93" x1="-0.000104904" y1="-12.0662" x2="-0.000104904" y2="11.791" gradientUnits="userSpaceOnUse">
<stop stop-color="#CEF9FF"/>
<stop offset="1" stop-color="#6F6CFF"/>
</linearGradient>
<linearGradient id="paint1_linear_19_93" x1="0.00878143" y1="32.5253" x2="0.00878143" y2="15.2963" gradientUnits="userSpaceOnUse">
<stop stop-color="#CEF9FF"/>
<stop offset="1" stop-color="#6F6CFF"/>
</linearGradient>
<clipPath id="clip0_19_93">
<rect width="139" height="23" fill="white"/>
</clipPath>
<clipPath id="clip1_19_93">
<rect y="-0.137573" width="11.9286" height="11.9286" rx="1" fill="white"/>
</clipPath>
<clipPath id="clip2_19_93">
<rect y="15.1376" width="22" height="8" rx="1" fill="white"/>
</clipPath>
<clipPath id="clip3_19_93">
<rect width="21.9277" height="8.61446" fill="white" transform="matrix(1 0 0 -1 0.00878906 23.9108)"/>
</clipPath>
</defs>
</svg>
